<svg id="visual" viewBox="0 0 960 540" width="960" height="540" xmlns="http://www.w3.org/2000/svg" xmlns:xlink="http://www.w3.org/1999/xlink" version="1.1"><rect x="0" y="0" width="960" height="540" fill="#fff8dc"></rect><defs><linearGradient id="grad1_0" x1="43.8%" y1="0%" x2="100%" y2="100%"><stop offset="14.444444444444446%" stop-color="#ff6d60" stop-opacity="1"></stop><stop offset="85.55555555555554%" stop-color="#ff6d60" stop-opacity="1"></stop></linearGradient></defs><defs><linearGradient id="grad1_1" x1="43.8%" y1="0%" x2="100%" y2="100%"><stop offset="14.444444444444446%" stop-color="#ff6d60" stop-opacity="1"></stop><stop offset="85.55555555555554%" stop-color="#ff8664" stop-opacity="1"></stop></linearGradient></defs><defs><linearGradient id="grad1_2" x1="43.8%" y1="0%" x2="100%" y2="100%"><stop offset="14.444444444444446%" stop-color="#fd9d6e" stop-opacity="1"></stop><stop offset="85.55555555555554%" stop-color="#ff8664" stop-opacity="1"></stop></linearGradient></defs><defs><linearGradient id="grad1_3" x1="43.8%" y1="0%" x2="100%" y2="100%"><stop offset="14.444444444444446%" stop-color="#fd9d6e" stop-opacity="1"></stop><stop offset="85.55555555555554%" stop-color="#fcb27c" stop-opacity="1"></stop></linearGradient></defs><defs><linearGradient id="grad1_4" x1="43.8%" y1="0%" x2="100%" y2="100%"><stop offset="14.444444444444446%" stop-color="#fac690" stop-opacity="1"></stop><stop offset="85.55555555555554%" stop-color="#fcb27c" stop-opacity="1"></stop></linearGradient></defs><defs><linearGradient id="grad1_5" x1="43.8%" y1="0%" x2="100%" y2="100%"><stop offset="14.444444444444446%" stop-color="#fac690" stop-opacity="1"></stop><stop offset="85.55555555555554%" stop-color="#fad8a7" stop-opacity="1"></stop></linearGradient></defs><defs><linearGradient id="grad1_6" x1="43.8%" y1="0%" x2="100%" y2="100%"><stop offset="14.444444444444446%" stop-color="#fbe8c1" stop-opacity="1"></stop><stop offset="85.55555555555554%" stop-color="#fad8a7" stop-opacity="1"></stop></linearGradient></defs><defs><linearGradient id="grad1_7" x1="43.8%" y1="0%" x2="100%" y2="100%"><stop offset="14.444444444444446%" stop-color="#fbe8c1" stop-opacity="1"></stop><stop offset="85.55555555555554%" stop-color="#fff8dc" stop-opacity="1"></stop></linearGradient></defs><defs><linearGradient id="grad2_0" x1="0%" y1="0%" x2="56.3%" y2="100%"><stop offset="14.444444444444446%" stop-color="#ff6d60" stop-opacity="1"></stop><stop offset="85.55555555555554%" stop-color="#ff6d60" stop-opacity="1"></stop></linearGradient></defs><defs><linearGradient id="grad2_1" x1="0%" y1="0%" x2="56.3%" y2="100%"><stop offset="14.444444444444446%" stop-color="#ff8664" stop-opacity="1"></stop><stop offset="85.55555555555554%" stop-color="#ff6d60" stop-opacity="1"></stop></linearGradient></defs><defs><linearGradient id="grad2_2" x1="0%" y1="0%" x2="56.3%" y2="100%"><stop offset="14.444444444444446%" stop-color="#ff8664" stop-opacity="1"></stop><stop offset="85.55555555555554%" stop-color="#fd9d6e" stop-opacity="1"></stop></linearGradient></defs><defs><linearGradient id="grad2_3" x1="0%" y1="0%" x2="56.3%" y2="100%"><stop offset="14.444444444444446%" stop-color="#fcb27c" stop-opacity="1"></stop><stop offset="85.55555555555554%" stop-color="#fd9d6e" stop-opacity="1"></stop></linearGradient></defs><defs><linearGradient id="grad2_4" x1="0%" y1="0%" x2="56.3%" y2="100%"><stop offset="14.444444444444446%" stop-color="#fcb27c" stop-opacity="1"></stop><stop offset="85.55555555555554%" stop-color="#fac690" stop-opacity="1"></stop></linearGradient></defs><defs><linearGradient id="grad2_5" x1="0%" y1="0%" x2="56.3%" y2="100%"><stop offset="14.444444444444446%" stop-color="#fad8a7" stop-opacity="1"></stop><stop offset="85.55555555555554%" stop-color="#fac690" stop-opacity="1"></stop></linearGradient></defs><defs><linearGradient id="grad2_6" x1="0%" y1="0%" x2="56.3%" y2="100%"><stop offset="14.444444444444446%" stop-color="#fad8a7" stop-opacity="1"></stop><stop offset="85.55555555555554%" stop-color="#fbe8c1" stop-opacity="1"></stop></linearGradient></defs><defs><linearGradient id="grad2_7" x1="0%" y1="0%" x2="56.3%" y2="100%"><stop offset="14.444444444444446%" stop-color="#fff8dc" stop-opacity="1"></stop><stop offset="85.55555555555554%" stop-color="#fbe8c1" stop-opacity="1"></stop></linearGradient></defs><g transform="translate(960, 0)"><path d="M0 513C-26 489.3 -51.9 465.6 -81.3 460.9C-110.6 456.2 -143.3 470.4 -168.6 463.3C-193.9 456.1 -211.9 427.5 -239 414C-266.1 400.4 -302.4 401.8 -321.4 383C-340.4 364.3 -342.2 325.3 -357.7 300.2C-373.3 275.1 -402.7 263.8 -423.5 244.5C-444.3 225.2 -456.5 197.9 -469.8 171C-483.2 144.1 -497.8 117.5 -505.2 89.1C-512.6 60.6 -512.8 30.3 -513 0L0 0Z" fill="#fdf0ce"></path><path d="M0 448.9C-22.7 428.1 -45.4 407.4 -71.1 403.3C-96.8 399.1 -125.4 411.6 -147.5 405.4C-169.7 399.1 -185.4 374.1 -209.1 362.2C-232.8 350.3 -264.6 351.6 -281.2 335.1C-297.9 318.7 -299.4 284.6 -313 262.7C-326.7 240.7 -352.4 230.8 -370.6 213.9C-388.7 197.1 -399.4 173.2 -411.1 149.6C-422.8 126.1 -435.6 102.8 -442.1 77.9C-448.5 53.1 -448.7 26.5 -448.9 0L0 0Z" fill="#fae0b3"></path><path d="M0 384.8C-19.5 367 -39 349.2 -61 345.7C-82.9 342.1 -107.5 352.8 -126.5 347.5C-145.5 342.1 -158.9 320.7 -179.2 310.5C-199.6 300.3 -226.8 301.3 -241 287.3C-255.3 273.2 -256.6 244 -268.3 225.1C-280 206.3 -302 197.8 -317.6 183.4C-333.2 168.9 -342.3 148.5 -352.4 128.3C-362.4 108.1 -373.4 88.1 -378.9 66.8C-384.4 45.5 -384.6 22.7 -384.7 0L0 0Z" fill="#facf9b"></path><path d="M0 320.6C-16.2 305.8 -32.5 291 -50.8 288.1C-69.1 285.1 -89.6 294 -105.4 289.5C-121.2 285.1 -132.4 267.2 -149.4 258.7C-166.3 250.2 -189 251.1 -200.9 239.4C-212.8 227.7 -213.9 203.3 -223.6 187.6C-233.3 171.9 -251.7 164.9 -264.7 152.8C-277.7 140.8 -285.3 123.7 -293.7 106.9C-302 90.1 -311.1 73.5 -315.8 55.7C-320.4 37.9 -320.5 18.9 -320.6 0L0 0Z" fill="#fbbc86"></path><path d="M0 256.5C-13 244.7 -26 232.8 -40.6 230.4C-55.3 228.1 -71.6 235.2 -84.3 231.6C-97 228.1 -105.9 213.8 -119.5 207C-133.1 200.2 -151.2 200.9 -160.7 191.5C-170.2 182.1 -171.1 162.6 -178.9 150.1C-186.7 137.5 -201.4 131.9 -211.7 122.3C-222.1 112.6 -228.2 99 -234.9 85.5C-241.6 72 -248.9 58.8 -252.6 44.5C-256.3 30.3 -256.4 15.2 -256.5 0L0 0Z" fill="#fda874"></path><path d="M0 192.4C-9.7 183.5 -19.5 174.6 -30.5 172.8C-41.5 171.1 -53.7 176.4 -63.2 173.7C-72.7 171 -79.5 160.3 -89.6 155.2C-99.8 150.1 -113.4 150.7 -120.5 143.6C-127.7 136.6 -128.3 122 -134.2 112.6C-140 103.1 -151 98.9 -158.8 91.7C-166.6 84.5 -171.2 74.2 -176.2 64.1C-181.2 54 -186.7 44.1 -189.5 33.4C-192.2 22.7 -192.3 11.4 -192.4 0L0 0Z" fill="#fe9268"></path><path d="M0 128.3C-6.5 122.3 -13 116.4 -20.3 115.2C-27.6 114 -35.8 117.6 -42.2 115.8C-48.5 114 -53 106.9 -59.7 103.5C-66.5 100.1 -75.6 100.4 -80.3 95.8C-85.1 91.1 -85.5 81.3 -89.4 75C-93.3 68.8 -100.7 65.9 -105.9 61.1C-111.1 56.3 -114.1 49.5 -117.5 42.8C-120.8 36 -124.5 29.4 -126.3 22.3C-128.1 15.2 -128.2 7.6 -128.2 0L0 0Z" fill="#ff7a61"></path><path d="M0 64.1C-3.2 61.2 -6.5 58.2 -10.2 57.6C-13.8 57 -17.9 58.8 -21.1 57.9C-24.2 57 -26.5 53.4 -29.9 51.7C-33.3 50 -37.8 50.2 -40.2 47.9C-42.6 45.5 -42.8 40.7 -44.7 37.5C-46.7 34.4 -50.3 33 -52.9 30.6C-55.5 28.2 -57.1 24.7 -58.7 21.4C-60.4 18 -62.2 14.7 -63.2 11.1C-64.1 7.6 -64.1 3.8 -64.1 0L0 0Z" fill="#ff6d60"></path></g><g transform="translate(0, 540)"><path d="M0 -513C29.4 -501.4 58.7 -489.8 83.5 -473.7C108.3 -457.6 128.6 -437 158.4 -435.1C188.1 -433.2 227.3 -449.9 256.5 -444.3C285.7 -438.7 304.9 -410.7 324.6 -386.9C344.3 -363 364.5 -343.3 383 -321.4C401.6 -299.4 418.5 -275.2 433 -250C447.5 -224.8 459.5 -198.5 471.7 -171.7C483.9 -144.9 496.3 -117.4 503.2 -88.7C510.1 -60 511.6 -30 513 0L0 0Z" fill="#fdf0ce"></path><path d="M0 -448.9C25.7 -438.7 51.4 -428.6 73.1 -414.5C94.8 -400.4 112.5 -382.4 138.6 -380.7C164.6 -379 198.9 -393.7 224.4 -388.7C250 -383.8 266.8 -359.3 284 -338.5C301.3 -317.6 318.9 -300.4 335.1 -281.2C351.4 -262 366.2 -240.8 378.9 -218.8C391.6 -196.7 402.1 -173.7 412.8 -150.2C423.4 -126.8 434.3 -102.8 440.3 -77.6C446.4 -52.5 447.6 -26.3 448.9 0L0 0Z" fill="#fae0b3"></path><path d="M0 -384.7C22 -376 44 -367.3 62.6 -355.3C81.3 -343.2 96.5 -327.8 118.8 -326.3C141.1 -324.9 170.5 -337.4 192.4 -333.2C214.3 -329 228.7 -308 243.5 -290.1C258.2 -272.3 273.3 -257.5 287.3 -241C301.2 -224.6 313.9 -206.4 324.8 -187.5C335.6 -168.6 344.6 -148.9 353.8 -128.8C362.9 -108.6 372.2 -88.1 377.4 -66.6C382.6 -45 383.7 -22.5 384.8 0L0 0Z" fill="#facf9b"></path><path d="M0 -320.6C18.3 -313.4 36.7 -306.1 52.2 -296.1C67.7 -286 80.4 -273.1 99 -271.9C117.6 -270.7 142.1 -281.2 160.3 -277.7C178.6 -274.2 190.6 -256.7 202.9 -241.8C215.2 -226.9 227.8 -214.6 239.4 -200.9C251 -187.2 261.6 -172 270.6 -156.3C279.7 -140.5 287.2 -124.1 294.8 -107.3C302.5 -90.5 310.2 -73.4 314.5 -55.5C318.8 -37.5 319.7 -18.8 320.6 0L0 0Z" fill="#fbbc86"></path><path d="M0 -256.5C14.7 -250.7 29.4 -244.9 41.8 -236.8C54.2 -228.8 64.3 -218.5 79.2 -217.5C94 -216.6 113.6 -224.9 128.2 -222.1C142.9 -219.3 152.5 -205.3 162.3 -193.4C172.1 -181.5 182.2 -171.7 191.5 -160.7C200.8 -149.7 209.3 -137.6 216.5 -125C223.7 -112.4 229.8 -99.3 235.9 -85.8C242 -72.4 248.2 -58.7 251.6 -44.4C255.1 -30 255.8 -15 256.5 0L0 0Z" fill="#fda874"></path><path d="M0 -192.4C11 -188 22 -183.7 31.3 -177.6C40.6 -171.6 48.2 -163.9 59.4 -163.2C70.5 -162.4 85.2 -168.7 96.2 -166.6C107.1 -164.5 114.3 -154 121.7 -145.1C129.1 -136.1 136.7 -128.8 143.6 -120.5C150.6 -112.3 156.9 -103.2 162.4 -93.8C167.8 -84.3 172.3 -74.4 176.9 -64.4C181.5 -54.3 186.1 -44 188.7 -33.3C191.3 -22.5 191.8 -11.3 192.4 0L0 0Z" fill="#fe9268"></path><path d="M0 -128.2C7.3 -125.3 14.7 -122.4 20.9 -118.4C27.1 -114.4 32.2 -109.3 39.6 -108.8C47 -108.3 56.8 -112.5 64.1 -111.1C71.4 -109.7 76.2 -102.7 81.2 -96.7C86.1 -90.8 91.1 -85.8 95.8 -80.3C100.4 -74.9 104.6 -68.8 108.3 -62.5C111.9 -56.2 114.9 -49.6 117.9 -42.9C121 -36.2 124.1 -29.4 125.8 -22.2C127.5 -15 127.9 -7.5 128.3 0L0 0Z" fill="#ff7a61"></path><path d="M0 -64.1C3.7 -62.7 7.3 -61.2 10.4 -59.2C13.5 -57.2 16.1 -54.6 19.8 -54.4C23.5 -54.1 28.4 -56.2 32.1 -55.5C35.7 -54.8 38.1 -51.3 40.6 -48.4C43 -45.4 45.6 -42.9 47.9 -40.2C50.2 -37.4 52.3 -34.4 54.1 -31.3C55.9 -28.1 57.4 -24.8 59 -21.5C60.5 -18.1 62 -14.7 62.9 -11.1C63.8 -7.5 63.9 -3.8 64.1 0L0 0Z" fill="#ff6d60"></path></g></svg>